# xmcd
#
# Track frame offsets:
#  150
#  11849
#  23831
#  34350
#  48074
#  61578
#  73003
#  84374
#  95927
#  107913
#  120960
#  132298
#  143550
#  154049
#  167547
#  177282
#
# Disc length: 2544 seconds
#
# Revision: 0
# Processed by: cddbd v1.5.2PL0 Copyright (c) Steve Scherf et al.
# Submitted via: AltoMP3_Maker 3.0
#
DISCID=ca09ee10
DTITLE=Various Artist - Country Classics Vol18
DYEAR=1900
DGENRE=
TTITLE0=Crying
TTITLE1=Bluebird Island
TTITLE2=Foggy Mountain Breakdown
TTITLE3=A Church A Courthouse And Then Goodbye
TTITLE4=Slow Poke
TTITLE5=King Without  Queen
TTITLE6=Defrost Your Heart
TTITLE7=My Chihuahau Dog
TTITLE8=Dad Gave My Dog Away
TTITLE9=Finders Keepers
TTITLE10=Don't Let The Stars Get In Your Eyes
TTITLE11=Varsoviana
TTITLE12=Looking Back To See
TTITLE13=She Cares No More For Me
TTITLE14=How About Me
TTITLE15=Where Do We Go From Here
EXTD=
EXTT0=
EXTT1=
EXTT2=
EXTT3=
EXTT4=
EXTT5=
EXTT6=
EXTT7=
EXTT8=
EXTT9=
EXTT10=
EXTT11=
EXTT12=
EXTT13=
EXTT14=
EXTT15=
PLAYORDER=
